<svg xmlns="http://www.w3.org/2000/svg" width="880" height="404" viewBox="0 0 880 404" role="img" aria-label="Player card: THAINV, full-stack engineer"><title>Player card: THAINV, full-stack engineer</title><defs><path id="g2c" shape-rendering="crispEdges" d="M1 4h2v1h-2zM2 5h1v1h-1zM1 6h1v1h-1z"/><path id="g2d" shape-rendering="crispEdges" d="M0 3h5v1h-5z"/><path id="g30" shape-rendering="crispEdges" d="M1 0h3v1h-3zM0 1h1v1h-1zM4 1h1v1h-1zM0 2h1v1h-1zM3 2h2v1h-2zM0 3h1v1h-1zM2 3h1v1h-1zM4 3h1v1h-1zM0 4h2v1h-2zM4 4h1v1h-1zM0 5h1v1h-1zM4 5h1v1h-1zM1 6h3v1h-3z"/><path id="g31" shape-rendering="crispEdges" d="M2 0h1v1h-1zM1 1h2v1h-2zM2 2h1v1h-1zM2 3h1v1h-1zM2 4h1v1h-1zM2 5h1v1h-1zM1 6h3v1h-3z"/><path id="g32" shape-rendering="crispEdges" d="M1 0h3v1h-3zM0 1h1v1h-1zM4 1h1v1h-1zM4 2h1v1h-1zM3 3h1v1h-1zM2 4h1v1h-1zM1 5h1v1h-1zM0 6h5v1h-5z"/><path id="g33" shape-rendering="crispEdges" d="M0 0h5v1h-5zM3 1h1v1h-1zM2 2h1v1h-1zM3 3h1v1h-1zM4 4h1v1h-1zM0 5h1v1h-1zM4 5h1v1h-1zM1 6h3v1h-3z"/><path id="g34" shape-rendering="crispEdges" d="M3 0h1v1h-1zM2 1h2v1h-2zM1 2h1v1h-1zM3 2h1v1h-1zM0 3h1v1h-1zM3 3h1v1h-1zM0 4h5v1h-5zM3 5h1v1h-1zM3 6h1v1h-1z"/><path id="g35" shape-rendering="crispEdges" d="M0 0h5v1h-5zM0 1h1v1h-1zM0 2h4v1h-4zM4 3h1v1h-1zM4 4h1v1h-1zM0 5h1v1h-1zM4 5h1v1h-1zM1 6h3v1h-3z"/><path id="g36" shape-rendering="crispEdges" d="M2 0h2v1h-2zM1 1h1v1h-1zM0 2h1v1h-1zM0 3h4v1h-4zM0 4h1v1h-1zM4 4h1v1h-1zM0 5h1v1h-1zM4 5h1v1h-1zM1 6h3v1h-3z"/><path id="g38" shape-rendering="crispEdges" d="M1 0h3v1h-3zM0 1h1v1h-1zM4 1h1v1h-1zM0 2h1v1h-1zM4 2h1v1h-1zM1 3h3v1h-3zM0 4h1v1h-1zM4 4h1v1h-1zM0 5h1v1h-1zM4 5h1v1h-1zM1 6h3v1h-3z"/><path id="g39" shape-rendering="crispEdges" d="M1 0h3v1h-3zM0 1h1v1h-1zM4 1h1v1h-1zM0 2h1v1h-1zM4 2h1v1h-1zM1 3h4v1h-4zM4 4h1v1h-1zM3 5h1v1h-1zM1 6h2v1h-2z"/><path id="g41" shape-rendering="crispEdges" d="M1 0h3v1h-3zM0 1h1v1h-1zM4 1h1v1h-1zM0 2h1v1h-1zM4 2h1v1h-1zM0 3h5v1h-5zM0 4h1v1h-1zM4 4h1v1h-1zM0 5h1v1h-1zM4 5h1v1h-1zM0 6h1v1h-1zM4 6h1v1h-1z"/><path id="g42" shape-rendering="crispEdges" d="M0 0h4v1h-4zM0 1h1v1h-1zM4 1h1v1h-1zM0 2h1v1h-1zM4 2h1v1h-1zM0 3h4v1h-4zM0 4h1v1h-1zM4 4h1v1h-1zM0 5h1v1h-1zM4 5h1v1h-1zM0 6h4v1h-4z"/><path id="g43" shape-rendering="crispEdges" d="M1 0h3v1h-3zM0 1h1v1h-1zM4 1h1v1h-1zM0 2h1v1h-1zM0 3h1v1h-1zM0 4h1v1h-1zM0 5h1v1h-1zM4 5h1v1h-1zM1 6h3v1h-3z"/><path id="g44" shape-rendering="crispEdges" d="M0 0h3v1h-3zM0 1h1v1h-1zM3 1h1v1h-1zM0 2h1v1h-1zM4 2h1v1h-1zM0 3h1v1h-1zM4 3h1v1h-1zM0 4h1v1h-1zM4 4h1v1h-1zM0 5h1v1h-1zM3 5h1v1h-1zM0 6h3v1h-3z"/><path id="g45" shape-rendering="crispEdges" d="M0 0h5v1h-5zM0 1h1v1h-1zM0 2h1v1h-1zM0 3h4v1h-4zM0 4h1v1h-1zM0 5h1v1h-1zM0 6h5v1h-5z"/><path id="g46" shape-rendering="crispEdges" d="M0 0h5v1h-5zM0 1h1v1h-1zM0 2h1v1h-1zM0 3h4v1h-4zM0 4h1v1h-1zM0 5h1v1h-1zM0 6h1v1h-1z"/><path id="g47" shape-rendering="crispEdges" d="M1 0h3v1h-3zM0 1h1v1h-1zM4 1h1v1h-1zM0 2h1v1h-1zM0 3h1v1h-1zM2 3h3v1h-3zM0 4h1v1h-1zM4 4h1v1h-1zM0 5h1v1h-1zM4 5h1v1h-1zM1 6h4v1h-4z"/><path id="g48" shape-rendering="crispEdges" d="M0 0h1v1h-1zM4 0h1v1h-1zM0 1h1v1h-1zM4 1h1v1h-1zM0 2h1v1h-1zM4 2h1v1h-1zM0 3h5v1h-5zM0 4h1v1h-1zM4 4h1v1h-1zM0 5h1v1h-1zM4 5h1v1h-1zM0 6h1v1h-1zM4 6h1v1h-1z"/><path id="g49" shape-rendering="crispEdges" d="M1 0h3v1h-3zM2 1h1v1h-1zM2 2h1v1h-1zM2 3h1v1h-1zM2 4h1v1h-1zM2 5h1v1h-1zM1 6h3v1h-3z"/><path id="g4a" shape-rendering="crispEdges" d="M2 0h3v1h-3zM3 1h1v1h-1zM3 2h1v1h-1zM3 3h1v1h-1zM3 4h1v1h-1zM0 5h1v1h-1zM3 5h1v1h-1zM1 6h2v1h-2z"/><path id="g4b" shape-rendering="crispEdges" d="M0 0h1v1h-1zM4 0h1v1h-1zM0 1h1v1h-1zM3 1h1v1h-1zM0 2h1v1h-1zM2 2h1v1h-1zM0 3h2v1h-2zM0 4h1v1h-1zM2 4h1v1h-1zM0 5h1v1h-1zM3 5h1v1h-1zM0 6h1v1h-1zM4 6h1v1h-1z"/><path id="g4c" shape-rendering="crispEdges" d="M0 0h1v1h-1zM0 1h1v1h-1zM0 2h1v1h-1zM0 3h1v1h-1zM0 4h1v1h-1zM0 5h1v1h-1zM0 6h5v1h-5z"/><path id="g4d" shape-rendering="crispEdges" d="M0 0h1v1h-1zM4 0h1v1h-1zM0 1h2v1h-2zM3 1h2v1h-2zM0 2h1v1h-1zM2 2h1v1h-1zM4 2h1v1h-1zM0 3h1v1h-1zM2 3h1v1h-1zM4 3h1v1h-1zM0 4h1v1h-1zM4 4h1v1h-1zM0 5h1v1h-1zM4 5h1v1h-1zM0 6h1v1h-1zM4 6h1v1h-1z"/><path id="g4e" shape-rendering="crispEdges" d="M0 0h1v1h-1zM4 0h1v1h-1zM0 1h1v1h-1zM4 1h1v1h-1zM0 2h2v1h-2zM4 2h1v1h-1zM0 3h1v1h-1zM2 3h1v1h-1zM4 3h1v1h-1zM0 4h1v1h-1zM3 4h2v1h-2zM0 5h1v1h-1zM4 5h1v1h-1zM0 6h1v1h-1zM4 6h1v1h-1z"/><path id="g4f" shape-rendering="crispEdges" d="M1 0h3v1h-3zM0 1h1v1h-1zM4 1h1v1h-1zM0 2h1v1h-1zM4 2h1v1h-1zM0 3h1v1h-1zM4 3h1v1h-1zM0 4h1v1h-1zM4 4h1v1h-1zM0 5h1v1h-1zM4 5h1v1h-1zM1 6h3v1h-3z"/><path id="g50" shape-rendering="crispEdges" d="M0 0h4v1h-4zM0 1h1v1h-1zM4 1h1v1h-1zM0 2h1v1h-1zM4 2h1v1h-1zM0 3h4v1h-4zM0 4h1v1h-1zM0 5h1v1h-1zM0 6h1v1h-1z"/><path id="g51" shape-rendering="crispEdges" d="M1 0h3v1h-3zM0 1h1v1h-1zM4 1h1v1h-1zM0 2h1v1h-1zM4 2h1v1h-1zM0 3h1v1h-1zM4 3h1v1h-1zM0 4h1v1h-1zM2 4h1v1h-1zM4 4h1v1h-1zM0 5h1v1h-1zM3 5h1v1h-1zM1 6h2v1h-2zM4 6h1v1h-1z"/><path id="g52" shape-rendering="crispEdges" d="M0 0h4v1h-4zM0 1h1v1h-1zM4 1h1v1h-1zM0 2h1v1h-1zM4 2h1v1h-1zM0 3h4v1h-4zM0 4h1v1h-1zM2 4h1v1h-1zM0 5h1v1h-1zM3 5h1v1h-1zM0 6h1v1h-1zM4 6h1v1h-1z"/><path id="g53" shape-rendering="crispEdges" d="M1 0h4v1h-4zM0 1h1v1h-1zM0 2h1v1h-1zM1 3h3v1h-3zM4 4h1v1h-1zM4 5h1v1h-1zM0 6h4v1h-4z"/><path id="g54" shape-rendering="crispEdges" d="M0 0h5v1h-5zM2 1h1v1h-1zM2 2h1v1h-1zM2 3h1v1h-1zM2 4h1v1h-1zM2 5h1v1h-1zM2 6h1v1h-1z"/><path id="g55" shape-rendering="crispEdges" d="M0 0h1v1h-1zM4 0h1v1h-1zM0 1h1v1h-1zM4 1h1v1h-1zM0 2h1v1h-1zM4 2h1v1h-1zM0 3h1v1h-1zM4 3h1v1h-1zM0 4h1v1h-1zM4 4h1v1h-1zM0 5h1v1h-1zM4 5h1v1h-1zM1 6h3v1h-3z"/><path id="g56" shape-rendering="crispEdges" d="M0 0h1v1h-1zM4 0h1v1h-1zM0 1h1v1h-1zM4 1h1v1h-1zM0 2h1v1h-1zM4 2h1v1h-1zM0 3h1v1h-1zM4 3h1v1h-1zM0 4h1v1h-1zM4 4h1v1h-1zM1 5h1v1h-1zM3 5h1v1h-1zM2 6h1v1h-1z"/><path id="g57" shape-rendering="crispEdges" d="M0 0h1v1h-1zM4 0h1v1h-1zM0 1h1v1h-1zM4 1h1v1h-1zM0 2h1v1h-1zM4 2h1v1h-1zM0 3h1v1h-1zM2 3h1v1h-1zM4 3h1v1h-1zM0 4h1v1h-1zM2 4h1v1h-1zM4 4h1v1h-1zM0 5h1v1h-1zM2 5h1v1h-1zM4 5h1v1h-1zM1 6h1v1h-1zM3 6h1v1h-1z"/><path id="g58" shape-rendering="crispEdges" d="M0 0h1v1h-1zM4 0h1v1h-1zM0 1h1v1h-1zM4 1h1v1h-1zM1 2h1v1h-1zM3 2h1v1h-1zM2 3h1v1h-1zM1 4h1v1h-1zM3 4h1v1h-1zM0 5h1v1h-1zM4 5h1v1h-1zM0 6h1v1h-1zM4 6h1v1h-1z"/><path id="g59" shape-rendering="crispEdges" d="M0 0h1v1h-1zM4 0h1v1h-1zM0 1h1v1h-1zM4 1h1v1h-1zM1 2h1v1h-1zM3 2h1v1h-1zM2 3h1v1h-1zM2 4h1v1h-1zM2 5h1v1h-1zM2 6h1v1h-1z"/><path id="gb7" shape-rendering="crispEdges" d="M2 3h1v1h-1z"/><path id="g2665" shape-rendering="crispEdges" d="M1 1h1v1h-1zM3 1h1v1h-1zM0 2h5v1h-5zM0 3h5v1h-5zM1 4h3v1h-3zM2 5h1v1h-1z"/><clipPath id="rv1"><rect x="400" y="254" width="384" height="14"><animate attributeName="width" values="0;12;24;36;48;60;72;84;96;108;120;132;144;156;168;180;192;204;216;228;240;252;264;276;288;300;312;324;336;348;360;372;384" keyTimes="0.0000;0.2941;0.3162;0.3382;0.3603;0.3824;0.4044;0.4265;0.4485;0.4706;0.4926;0.5147;0.5368;0.5588;0.5809;0.6029;0.6250;0.6471;0.6691;0.6912;0.7132;0.7353;0.7574;0.7794;0.8015;0.8235;0.8456;0.8676;0.8897;0.9118;0.9338;0.9559;0.9779" dur="1.360s" calcMode="discrete" fill="freeze"/></rect></clipPath><clipPath id="rv2"><rect x="400" y="276" width="192" height="14"><animate attributeName="width" values="0;12;24;36;48;60;72;84;96;108;120;132;144;156;168;180;192" keyTimes="0.0000;0.5340;0.5631;0.5922;0.6214;0.6505;0.6796;0.7087;0.7379;0.7670;0.7961;0.8252;0.8544;0.8835;0.9126;0.9417;0.9709" dur="1.030s" calcMode="discrete" fill="freeze"/></rect></clipPath><clipPath id="rv3"><rect x="400" y="298" width="168" height="14"><animate attributeName="width" values="0;12;24;36;48;60;72;84;96;108;120;132;144;156;168" keyTimes="0.0000;0.6250;0.6518;0.6786;0.7054;0.7321;0.7589;0.7857;0.8125;0.8393;0.8661;0.8929;0.9196;0.9464;0.9732" dur="1.120s" calcMode="discrete" fill="freeze"/></rect></clipPath><clipPath id="rv4"><rect x="400" y="320" width="168" height="14"><animate attributeName="width" values="0;12;24;36;48;60;72;84;96;108;120;132;144;156;168" keyTimes="0.0000;0.6693;0.6929;0.7165;0.7402;0.7638;0.7874;0.8110;0.8346;0.8583;0.8819;0.9055;0.9291;0.9528;0.9764" dur="1.270s" calcMode="discrete" fill="freeze"/></rect></clipPath><clipPath id="rv5"><rect x="400" y="342" width="120" height="14"><animate attributeName="width" values="0;12;24;36;48;60;72;84;96;108;120" keyTimes="0.0000;0.7692;0.7923;0.8154;0.8385;0.8615;0.8846;0.9077;0.9308;0.9538;0.9769" dur="1.300s" calcMode="discrete" fill="freeze"/></rect></clipPath><clipPath id="rv6"><rect x="400" y="364" width="84" height="14"><animate attributeName="width" values="0;12;24;36;48;60;72;84" keyTimes="0.0000;0.8456;0.8676;0.8897;0.9118;0.9338;0.9559;0.9779" dur="1.360s" calcMode="discrete" fill="freeze"/></rect></clipPath><pattern id="scan7" width="4" height="4" patternUnits="userSpaceOnUse"><rect y="2" width="4" height="2" fill="#000" fill-opacity="0.18"/></pattern></defs><rect x="6" y="18" width="868" height="380" fill="#0b0b16" shape-rendering="crispEdges"/><rect x="10" y="14" width="860" height="4" fill="#f4f4ff" shape-rendering="crispEdges"/><rect x="10" y="398" width="860" height="4" fill="#f4f4ff" shape-rendering="crispEdges"/><rect x="2" y="22" width="4" height="372" fill="#f4f4ff" shape-rendering="crispEdges"/><rect x="874" y="22" width="4" height="372" fill="#f4f4ff" shape-rendering="crispEdges"/><rect x="6" y="18" width="4" height="4" fill="#f4f4ff" shape-rendering="crispEdges"/><rect x="870" y="18" width="4" height="4" fill="#f4f4ff" shape-rendering="crispEdges"/><rect x="6" y="394" width="4" height="4" fill="#f4f4ff" shape-rendering="crispEdges"/><rect x="870" y="394" width="4" height="4" fill="#f4f4ff" shape-rendering="crispEdges"/><rect x="28" y="6" width="118" height="22" fill="#0b0b16" shape-rendering="crispEdges"/><rect x="32" y="2" width="110" height="4" fill="#f4f4ff" shape-rendering="crispEdges"/><rect x="32" y="28" width="110" height="4" fill="#f4f4ff" shape-rendering="crispEdges"/><rect x="24" y="10" width="4" height="14" fill="#f4f4ff" shape-rendering="crispEdges"/><rect x="146" y="10" width="4" height="14" fill="#f4f4ff" shape-rendering="crispEdges"/><rect x="28" y="6" width="4" height="4" fill="#f4f4ff" shape-rendering="crispEdges"/><rect x="142" y="6" width="4" height="4" fill="#f4f4ff" shape-rendering="crispEdges"/><rect x="28" y="24" width="4" height="4" fill="#f4f4ff" shape-rendering="crispEdges"/><rect x="142" y="24" width="4" height="4" fill="#f4f4ff" shape-rendering="crispEdges"/><g transform="translate(40 10) scale(2)" fill="#ffe14d"><use href="#g50" x="0"/><use href="#g4c" x="6"/><use href="#g41" x="12"/><use href="#g59" x="18"/><use href="#g45" x="24"/><use href="#g52" x="30"/><use href="#g31" x="42"/></g><rect x="38" y="50" width="188" height="188" fill="#15152a" shape-rendering="crispEdges"/><rect x="40" y="48" width="184" height="2" fill="#2c2c4a" shape-rendering="crispEdges"/><rect x="40" y="238" width="184" height="2" fill="#2c2c4a" shape-rendering="crispEdges"/><rect x="36" y="52" width="2" height="184" fill="#2c2c4a" shape-rendering="crispEdges"/><rect x="226" y="52" width="2" height="184" fill="#2c2c4a" shape-rendering="crispEdges"/><rect x="38" y="50" width="2" height="2" fill="#2c2c4a" shape-rendering="crispEdges"/><rect x="224" y="50" width="2" height="2" fill="#2c2c4a" shape-rendering="crispEdges"/><rect x="38" y="236" width="2" height="2" fill="#2c2c4a" shape-rendering="crispEdges"/><rect x="224" y="236" width="2" height="2" fill="#2c2c4a" shape-rendering="crispEdges"/><rect x="56" y="220" width="152" height="4" fill="#2c2c4a"/><g transform="translate(52 60)"><g><animateTransform attributeName="transform" type="translate" values="0 0;0 -10" dur="0.9s" calcMode="discrete" repeatCount="indefinite"/><g transform="scale(10)"><path fill="#1a0f2e" shape-rendering="crispEdges" d="M1 0h1v1h-1zM14 0h1v1h-1zM0 1h1v1h-1zM2 1h1v1h-1zM13 1h1v1h-1zM15 1h1v1h-1zM0 2h1v1h-1zM3 2h1v1h-1zM5 2h6v1h-6zM12 2h1v1h-1zM15 2h1v1h-1zM1 3h1v1h-1zM3 3h2v1h-2zM11 3h2v1h-2zM14 3h1v1h-1zM2 4h1v1h-1zM13 4h1v1h-1zM1 5h1v1h-1zM14 5h1v1h-1zM1 6h1v1h-1zM14 6h1v1h-1zM0 7h1v1h-1zM15 7h1v1h-1zM0 8h1v1h-1zM15 8h1v1h-1zM0 9h1v1h-1zM15 9h1v1h-1zM0 10h1v1h-1zM4 10h1v1h-1zM6 10h4v1h-4zM11 10h1v1h-1zM15 10h1v1h-1zM1 11h1v1h-1zM14 11h1v1h-1zM1 12h1v1h-1zM14 12h1v1h-1zM2 13h1v1h-1zM13 13h1v1h-1zM2 14h1v1h-1zM5 14h6v1h-6zM13 14h1v1h-1zM2 15h4v1h-4zM10 15h4v1h-4z"/><path fill="#f5e6c8" shape-rendering="crispEdges" d="M1 1h1v1h-1zM14 1h1v1h-1zM1 2h2v1h-2zM13 2h2v1h-2zM2 3h1v1h-1zM13 3h1v1h-1z"/><path fill="#c4a6ff" shape-rendering="crispEdges" d="M5 3h6v1h-6zM3 4h2v1h-2zM11 4h2v1h-2zM2 5h1v1h-1zM13 5h1v1h-1z"/><path fill="#8b5cf6" shape-rendering="crispEdges" d="M5 4h6v1h-6zM3 5h10v1h-10zM2 6h1v1h-1zM6 6h4v1h-4zM13 6h1v1h-1zM1 7h2v1h-2zM6 7h4v1h-4zM13 7h2v1h-2zM1 8h2v1h-2zM6 8h4v1h-4zM13 8h2v1h-2zM1 9h1v1h-1zM3 9h10v1h-10zM14 9h1v1h-1zM1 10h3v1h-3zM12 10h3v1h-3zM2 11h12v1h-12zM3 12h10v1h-10z"/><path fill="#5b2fb8" shape-rendering="crispEdges" d="M2 12h1v1h-1zM13 12h1v1h-1zM3 13h10v1h-10zM3 14h2v1h-2zM11 14h2v1h-2z"/><path fill="#ffffff" shape-rendering="crispEdges" d="M3 6h3v1h-3zM10 6h3v1h-3zM3 7h1v1h-1zM12 7h1v1h-1zM3 8h1v1h-1zM12 8h1v1h-1zM5 10h1v1h-1zM10 10h1v1h-1z"/><path fill="#1a0f2e" shape-rendering="crispEdges" d="M4 7h2v1h-2zM10 7h2v1h-2zM4 8h2v1h-2zM10 8h2v1h-2z"/><path fill="#ff7aa8" shape-rendering="crispEdges" d="M2 9h1v1h-1zM13 9h1v1h-1z"/><g opacity="0"><path fill="#1a0f2e" shape-rendering="crispEdges" d="M3 8h3v1h-3zM10 8h3v1h-3z"/><path fill="#8b5cf6" shape-rendering="crispEdges" d="M3 6h3v1h-3zM10 6h3v1h-3zM3 7h3v1h-3zM10 7h3v1h-3z"/><animate attributeName="opacity" values="0;1;0" keyTimes="0.0000;0.9000;0.9500" dur="4.200s" calcMode="discrete" repeatCount="indefinite"/></g></g></g></g><g transform="translate(80 260) scale(3)" fill="#f4f4ff"><use href="#g54" x="0"/><use href="#g48" x="6"/><use href="#g41" x="12"/><use href="#g49" x="18"/><use href="#g4e" x="24"/><use href="#g56" x="30"/></g><g transform="translate(103 294) scale(2)" fill="#ffe14d"><use href="#g4c" x="0"/><use href="#g56" x="6"/><use href="#g30" x="18"/><use href="#g38" x="24"/></g><g transform="translate(103 320) scale(2)" fill="#ff4d4d"><use href="#g2665" x="0"/><use href="#g2665" x="6"/><use href="#g2665" x="12"/><use href="#g2665" x="18"/><use href="#g2665" x="24"/></g><g transform="translate(66 320) scale(2)" fill="#7d84a8"><use href="#g48" x="0"/><use href="#g50" x="6"/></g><g transform="translate(268 48) scale(2)" fill="#2de2e6"><use href="#g43" x="0"/><use href="#g4c" x="6"/><use href="#g41" x="12"/><use href="#g53" x="18"/><use href="#g53" x="24"/></g><g transform="translate(364 48) scale(2)" fill="#f4f4ff"><use href="#g46" x="0"/><use href="#g55" x="6"/><use href="#g4c" x="12"/><use href="#g4c" x="18"/><use href="#g2d" x="24"/><use href="#g53" x="30"/><use href="#g54" x="36"/><use href="#g41" x="42"/><use href="#g43" x="48"/><use href="#g4b" x="54"/><use href="#g45" x="66"/><use href="#g4e" x="72"/><use href="#g47" x="78"/><use href="#g49" x="84"/><use href="#g4e" x="90"/><use href="#g45" x="96"/><use href="#g45" x="102"/><use href="#g52" x="108"/></g><g transform="translate(268 74) scale(2)" fill="#2de2e6"><use href="#g52" x="0"/><use href="#g41" x="6"/><use href="#g4e" x="12"/><use href="#g4b" x="18"/></g><g transform="translate(364 74) scale(2)" fill="#f4f4ff"><use href="#g54" x="0"/><use href="#g45" x="6"/><use href="#g41" x="12"/><use href="#g4d" x="18"/><use href="#g4c" x="30"/><use href="#g45" x="36"/><use href="#g41" x="42"/><use href="#g44" x="48"/></g><g transform="translate(268 100) scale(2)" fill="#2de2e6"><use href="#g47" x="0"/><use href="#g55" x="6"/><use href="#g49" x="12"/><use href="#g4c" x="18"/><use href="#g44" x="24"/></g><g transform="translate(364 100) scale(2)" fill="#f4f4ff"><use href="#g42" x="0"/><use href="#g45" x="6"/><use href="#g48" x="12"/><use href="#g45" x="18"/><use href="#g4d" x="24"/><use href="#g4f" x="30"/><use href="#g54" x="36"/><use href="#g48" x="42"/><use href="#gb7" x="54"/><use href="#g32" x="66"/><use href="#g30" x="72"/><use href="#g32" x="78"/><use href="#g30" x="84"/><use href="#g2d" x="90"/><use href="#g4e" x="96"/><use href="#g4f" x="102"/><use href="#g57" x="108"/></g><g transform="translate(268 126) scale(2)" fill="#2de2e6"><use href="#g42" x="0"/><use href="#g41" x="6"/><use href="#g53" x="12"/><use href="#g45" x="18"/></g><g transform="translate(364 126) scale(2)" fill="#f4f4ff"><use href="#g48" x="0"/><use href="#g41" x="6"/><use href="#g4e" x="12"/><use href="#g4f" x="18"/><use href="#g49" x="24"/><use href="#g2c" x="30"/><use href="#g56" x="42"/><use href="#g49" x="48"/><use href="#g45" x="54"/><use href="#g54" x="60"/><use href="#g4e" x="66"/><use href="#g41" x="72"/><use href="#g4d" x="78"/></g><g transform="translate(268 152) scale(2)" fill="#2de2e6"><use href="#g58" x="0"/><use href="#g50" x="6"/></g><g transform="translate(364 152) scale(2)" fill="#f4f4ff"><use href="#g31" x="0"/><use href="#g36" x="6"/><use href="#g2c" x="12"/><use href="#g38" x="18"/><use href="#g35" x="24"/><use href="#g33" x="30"/><use href="#g43" x="42"/><use href="#g4f" x="48"/><use href="#g4e" x="54"/><use href="#g54" x="60"/><use href="#g52" x="66"/><use href="#g49" x="72"/><use href="#g42" x="78"/><use href="#g55" x="84"/><use href="#g54" x="90"/><use href="#g49" x="96"/><use href="#g4f" x="102"/><use href="#g4e" x="108"/><use href="#g53" x="114"/></g><g transform="translate(268 178) scale(2)" fill="#2de2e6"><use href="#g51" x="0"/><use href="#g55" x="6"/><use href="#g45" x="12"/><use href="#g53" x="18"/><use href="#g54" x="24"/><use href="#g53" x="30"/></g><g transform="translate(364 178) scale(2)" fill="#f4f4ff"><use href="#g39" x="0"/><use href="#g36" x="6"/><use href="#g52" x="18"/><use href="#g45" x="24"/><use href="#g50" x="30"/><use href="#g4f" x="36"/><use href="#g53" x="42"/></g><rect x="268" y="210" width="8" height="2" fill="#2c2c4a"/><rect x="282" y="210" width="8" height="2" fill="#2c2c4a"/><rect x="296" y="210" width="8" height="2" fill="#2c2c4a"/><rect x="310" y="210" width="8" height="2" fill="#2c2c4a"/><rect x="324" y="210" width="8" height="2" fill="#2c2c4a"/><rect x="338" y="210" width="8" height="2" fill="#2c2c4a"/><rect x="352" y="210" width="8" height="2" fill="#2c2c4a"/><rect x="366" y="210" width="8" height="2" fill="#2c2c4a"/><rect x="380" y="210" width="8" height="2" fill="#2c2c4a"/><rect x="394" y="210" width="8" height="2" fill="#2c2c4a"/><rect x="408" y="210" width="8" height="2" fill="#2c2c4a"/><rect x="422" y="210" width="8" height="2" fill="#2c2c4a"/><rect x="436" y="210" width="8" height="2" fill="#2c2c4a"/><rect x="450" y="210" width="8" height="2" fill="#2c2c4a"/><rect x="464" y="210" width="8" height="2" fill="#2c2c4a"/><rect x="478" y="210" width="8" height="2" fill="#2c2c4a"/><rect x="492" y="210" width="8" height="2" fill="#2c2c4a"/><rect x="506" y="210" width="8" height="2" fill="#2c2c4a"/><rect x="520" y="210" width="8" height="2" fill="#2c2c4a"/><rect x="534" y="210" width="8" height="2" fill="#2c2c4a"/><rect x="548" y="210" width="8" height="2" fill="#2c2c4a"/><rect x="562" y="210" width="8" height="2" fill="#2c2c4a"/><rect x="576" y="210" width="8" height="2" fill="#2c2c4a"/><rect x="590" y="210" width="8" height="2" fill="#2c2c4a"/><rect x="604" y="210" width="8" height="2" fill="#2c2c4a"/><rect x="618" y="210" width="8" height="2" fill="#2c2c4a"/><rect x="632" y="210" width="8" height="2" fill="#2c2c4a"/><rect x="646" y="210" width="8" height="2" fill="#2c2c4a"/><rect x="660" y="210" width="8" height="2" fill="#2c2c4a"/><rect x="674" y="210" width="8" height="2" fill="#2c2c4a"/><rect x="688" y="210" width="8" height="2" fill="#2c2c4a"/><rect x="702" y="210" width="8" height="2" fill="#2c2c4a"/><rect x="716" y="210" width="8" height="2" fill="#2c2c4a"/><rect x="730" y="210" width="8" height="2" fill="#2c2c4a"/><rect x="744" y="210" width="8" height="2" fill="#2c2c4a"/><rect x="758" y="210" width="8" height="2" fill="#2c2c4a"/><rect x="772" y="210" width="8" height="2" fill="#2c2c4a"/><rect x="786" y="210" width="8" height="2" fill="#2c2c4a"/><rect x="800" y="210" width="8" height="2" fill="#2c2c4a"/><rect x="814" y="210" width="8" height="2" fill="#2c2c4a"/><rect x="828" y="210" width="8" height="2" fill="#2c2c4a"/><rect x="842" y="210" width="8" height="2" fill="#2c2c4a"/><g transform="translate(268 226) scale(2)" fill="#7d84a8"><use href="#g53" x="0"/><use href="#g4b" x="6"/><use href="#g49" x="12"/><use href="#g4c" x="18"/><use href="#g4c" x="24"/><use href="#g58" x="36"/><use href="#g50" x="42"/><use href="#gb7" x="54"/><use href="#g52" x="66"/><use href="#g45" x="72"/><use href="#g50" x="78"/><use href="#g4f" x="84"/><use href="#g53" x="90"/><use href="#g50" x="102"/><use href="#g45" x="108"/><use href="#g52" x="114"/><use href="#g4c" x="126"/><use href="#g41" x="132"/><use href="#g4e" x="138"/><use href="#g47" x="144"/><use href="#g55" x="150"/><use href="#g41" x="156"/><use href="#g47" x="162"/><use href="#g45" x="168"/></g><g transform="translate(268 254) scale(2)" fill="#f4f4ff"><use href="#g54" x="0"/><use href="#g59" x="6"/><use href="#g50" x="12"/><use href="#g45" x="18"/><use href="#g53" x="24"/><use href="#g43" x="30"/><use href="#g52" x="36"/><use href="#g49" x="42"/><use href="#g50" x="48"/><use href="#g54" x="54"/></g><rect x="400" y="254" width="10" height="14" fill="#2c2c4a"/><rect x="412" y="254" width="10" height="14" fill="#2c2c4a"/><rect x="424" y="254" width="10" height="14" fill="#2c2c4a"/><rect x="436" y="254" width="10" height="14" fill="#2c2c4a"/><rect x="448" y="254" width="10" height="14" fill="#2c2c4a"/><rect x="460" y="254" width="10" height="14" fill="#2c2c4a"/><rect x="472" y="254" width="10" height="14" fill="#2c2c4a"/><rect x="484" y="254" width="10" height="14" fill="#2c2c4a"/><rect x="496" y="254" width="10" height="14" fill="#2c2c4a"/><rect x="508" y="254" width="10" height="14" fill="#2c2c4a"/><rect x="520" y="254" width="10" height="14" fill="#2c2c4a"/><rect x="532" y="254" width="10" height="14" fill="#2c2c4a"/><rect x="544" y="254" width="10" height="14" fill="#2c2c4a"/><rect x="556" y="254" width="10" height="14" fill="#2c2c4a"/><rect x="568" y="254" width="10" height="14" fill="#2c2c4a"/><rect x="580" y="254" width="10" height="14" fill="#2c2c4a"/><rect x="592" y="254" width="10" height="14" fill="#2c2c4a"/><rect x="604" y="254" width="10" height="14" fill="#2c2c4a"/><rect x="616" y="254" width="10" height="14" fill="#2c2c4a"/><rect x="628" y="254" width="10" height="14" fill="#2c2c4a"/><rect x="640" y="254" width="10" height="14" fill="#2c2c4a"/><rect x="652" y="254" width="10" height="14" fill="#2c2c4a"/><rect x="664" y="254" width="10" height="14" fill="#2c2c4a"/><rect x="676" y="254" width="10" height="14" fill="#2c2c4a"/><rect x="688" y="254" width="10" height="14" fill="#2c2c4a"/><rect x="700" y="254" width="10" height="14" fill="#2c2c4a"/><rect x="712" y="254" width="10" height="14" fill="#2c2c4a"/><rect x="724" y="254" width="10" height="14" fill="#2c2c4a"/><rect x="736" y="254" width="10" height="14" fill="#2c2c4a"/><rect x="748" y="254" width="10" height="14" fill="#2c2c4a"/><rect x="760" y="254" width="10" height="14" fill="#2c2c4a"/><rect x="772" y="254" width="10" height="14" fill="#2c2c4a"/><g clip-path="url(#rv1)"><rect x="400" y="254" width="10" height="14" fill="#3d8eff"/><rect x="412" y="254" width="10" height="14" fill="#3d8eff"/><rect x="424" y="254" width="10" height="14" fill="#3d8eff"/><rect x="436" y="254" width="10" height="14" fill="#3d8eff"/><rect x="448" y="254" width="10" height="14" fill="#3d8eff"/><rect x="460" y="254" width="10" height="14" fill="#3d8eff"/><rect x="472" y="254" width="10" height="14" fill="#3d8eff"/><rect x="484" y="254" width="10" height="14" fill="#3d8eff"/><rect x="496" y="254" width="10" height="14" fill="#3d8eff"/><rect x="508" y="254" width="10" height="14" fill="#3d8eff"/><rect x="520" y="254" width="10" height="14" fill="#3d8eff"/><rect x="532" y="254" width="10" height="14" fill="#3d8eff"/><rect x="544" y="254" width="10" height="14" fill="#3d8eff"/><rect x="556" y="254" width="10" height="14" fill="#3d8eff"/><rect x="568" y="254" width="10" height="14" fill="#3d8eff"/><rect x="580" y="254" width="10" height="14" fill="#3d8eff"/><rect x="592" y="254" width="10" height="14" fill="#3d8eff"/><rect x="604" y="254" width="10" height="14" fill="#3d8eff"/><rect x="616" y="254" width="10" height="14" fill="#3d8eff"/><rect x="628" y="254" width="10" height="14" fill="#3d8eff"/><rect x="640" y="254" width="10" height="14" fill="#3d8eff"/><rect x="652" y="254" width="10" height="14" fill="#3d8eff"/><rect x="664" y="254" width="10" height="14" fill="#3d8eff"/><rect x="676" y="254" width="10" height="14" fill="#3d8eff"/><rect x="688" y="254" width="10" height="14" fill="#3d8eff"/><rect x="700" y="254" width="10" height="14" fill="#3d8eff"/><rect x="712" y="254" width="10" height="14" fill="#3d8eff"/><rect x="724" y="254" width="10" height="14" fill="#3d8eff"/><rect x="736" y="254" width="10" height="14" fill="#3d8eff"/><rect x="748" y="254" width="10" height="14" fill="#3d8eff"/><rect x="760" y="254" width="10" height="14" fill="#3d8eff"/><rect x="772" y="254" width="10" height="14" fill="#3d8eff"/></g><g transform="translate(794 254) scale(2)" fill="#3d8eff"><use href="#g34" x="0"/><use href="#g34" x="6"/></g><g transform="translate(268 276) scale(2)" fill="#f4f4ff"><use href="#g50" x="0"/><use href="#g59" x="6"/><use href="#g54" x="12"/><use href="#g48" x="18"/><use href="#g4f" x="24"/><use href="#g4e" x="30"/></g><rect x="400" y="276" width="10" height="14" fill="#2c2c4a"/><rect x="412" y="276" width="10" height="14" fill="#2c2c4a"/><rect x="424" y="276" width="10" height="14" fill="#2c2c4a"/><rect x="436" y="276" width="10" height="14" fill="#2c2c4a"/><rect x="448" y="276" width="10" height="14" fill="#2c2c4a"/><rect x="460" y="276" width="10" height="14" fill="#2c2c4a"/><rect x="472" y="276" width="10" height="14" fill="#2c2c4a"/><rect x="484" y="276" width="10" height="14" fill="#2c2c4a"/><rect x="496" y="276" width="10" height="14" fill="#2c2c4a"/><rect x="508" y="276" width="10" height="14" fill="#2c2c4a"/><rect x="520" y="276" width="10" height="14" fill="#2c2c4a"/><rect x="532" y="276" width="10" height="14" fill="#2c2c4a"/><rect x="544" y="276" width="10" height="14" fill="#2c2c4a"/><rect x="556" y="276" width="10" height="14" fill="#2c2c4a"/><rect x="568" y="276" width="10" height="14" fill="#2c2c4a"/><rect x="580" y="276" width="10" height="14" fill="#2c2c4a"/><rect x="592" y="276" width="10" height="14" fill="#2c2c4a"/><rect x="604" y="276" width="10" height="14" fill="#2c2c4a"/><rect x="616" y="276" width="10" height="14" fill="#2c2c4a"/><rect x="628" y="276" width="10" height="14" fill="#2c2c4a"/><rect x="640" y="276" width="10" height="14" fill="#2c2c4a"/><rect x="652" y="276" width="10" height="14" fill="#2c2c4a"/><rect x="664" y="276" width="10" height="14" fill="#2c2c4a"/><rect x="676" y="276" width="10" height="14" fill="#2c2c4a"/><rect x="688" y="276" width="10" height="14" fill="#2c2c4a"/><rect x="700" y="276" width="10" height="14" fill="#2c2c4a"/><rect x="712" y="276" width="10" height="14" fill="#2c2c4a"/><rect x="724" y="276" width="10" height="14" fill="#2c2c4a"/><rect x="736" y="276" width="10" height="14" fill="#2c2c4a"/><rect x="748" y="276" width="10" height="14" fill="#2c2c4a"/><rect x="760" y="276" width="10" height="14" fill="#2c2c4a"/><rect x="772" y="276" width="10" height="14" fill="#2c2c4a"/><g clip-path="url(#rv2)"><rect x="400" y="276" width="10" height="14" fill="#ffd43b"/><rect x="412" y="276" width="10" height="14" fill="#ffd43b"/><rect x="424" y="276" width="10" height="14" fill="#ffd43b"/><rect x="436" y="276" width="10" height="14" fill="#ffd43b"/><rect x="448" y="276" width="10" height="14" fill="#ffd43b"/><rect x="460" y="276" width="10" height="14" fill="#ffd43b"/><rect x="472" y="276" width="10" height="14" fill="#ffd43b"/><rect x="484" y="276" width="10" height="14" fill="#ffd43b"/><rect x="496" y="276" width="10" height="14" fill="#ffd43b"/><rect x="508" y="276" width="10" height="14" fill="#ffd43b"/><rect x="520" y="276" width="10" height="14" fill="#ffd43b"/><rect x="532" y="276" width="10" height="14" fill="#ffd43b"/><rect x="544" y="276" width="10" height="14" fill="#ffd43b"/><rect x="556" y="276" width="10" height="14" fill="#ffd43b"/><rect x="568" y="276" width="10" height="14" fill="#ffd43b"/><rect x="580" y="276" width="10" height="14" fill="#ffd43b"/></g><g transform="translate(794 276) scale(2)" fill="#ffd43b"><use href="#g32" x="0"/><use href="#g32" x="6"/></g><g transform="translate(268 298) scale(2)" fill="#f4f4ff"><use href="#g56" x="0"/><use href="#g55" x="6"/><use href="#g45" x="12"/></g><rect x="400" y="298" width="10" height="14" fill="#2c2c4a"/><rect x="412" y="298" width="10" height="14" fill="#2c2c4a"/><rect x="424" y="298" width="10" height="14" fill="#2c2c4a"/><rect x="436" y="298" width="10" height="14" fill="#2c2c4a"/><rect x="448" y="298" width="10" height="14" fill="#2c2c4a"/><rect x="460" y="298" width="10" height="14" fill="#2c2c4a"/><rect x="472" y="298" width="10" height="14" fill="#2c2c4a"/><rect x="484" y="298" width="10" height="14" fill="#2c2c4a"/><rect x="496" y="298" width="10" height="14" fill="#2c2c4a"/><rect x="508" y="298" width="10" height="14" fill="#2c2c4a"/><rect x="520" y="298" width="10" height="14" fill="#2c2c4a"/><rect x="532" y="298" width="10" height="14" fill="#2c2c4a"/><rect x="544" y="298" width="10" height="14" fill="#2c2c4a"/><rect x="556" y="298" width="10" height="14" fill="#2c2c4a"/><rect x="568" y="298" width="10" height="14" fill="#2c2c4a"/><rect x="580" y="298" width="10" height="14" fill="#2c2c4a"/><rect x="592" y="298" width="10" height="14" fill="#2c2c4a"/><rect x="604" y="298" width="10" height="14" fill="#2c2c4a"/><rect x="616" y="298" width="10" height="14" fill="#2c2c4a"/><rect x="628" y="298" width="10" height="14" fill="#2c2c4a"/><rect x="640" y="298" width="10" height="14" fill="#2c2c4a"/><rect x="652" y="298" width="10" height="14" fill="#2c2c4a"/><rect x="664" y="298" width="10" height="14" fill="#2c2c4a"/><rect x="676" y="298" width="10" height="14" fill="#2c2c4a"/><rect x="688" y="298" width="10" height="14" fill="#2c2c4a"/><rect x="700" y="298" width="10" height="14" fill="#2c2c4a"/><rect x="712" y="298" width="10" height="14" fill="#2c2c4a"/><rect x="724" y="298" width="10" height="14" fill="#2c2c4a"/><rect x="736" y="298" width="10" height="14" fill="#2c2c4a"/><rect x="748" y="298" width="10" height="14" fill="#2c2c4a"/><rect x="760" y="298" width="10" height="14" fill="#2c2c4a"/><rect x="772" y="298" width="10" height="14" fill="#2c2c4a"/><g clip-path="url(#rv3)"><rect x="400" y="298" width="10" height="14" fill="#41d18f"/><rect x="412" y="298" width="10" height="14" fill="#41d18f"/><rect x="424" y="298" width="10" height="14" fill="#41d18f"/><rect x="436" y="298" width="10" height="14" fill="#41d18f"/><rect x="448" y="298" width="10" height="14" fill="#41d18f"/><rect x="460" y="298" width="10" height="14" fill="#41d18f"/><rect x="472" y="298" width="10" height="14" fill="#41d18f"/><rect x="484" y="298" width="10" height="14" fill="#41d18f"/><rect x="496" y="298" width="10" height="14" fill="#41d18f"/><rect x="508" y="298" width="10" height="14" fill="#41d18f"/><rect x="520" y="298" width="10" height="14" fill="#41d18f"/><rect x="532" y="298" width="10" height="14" fill="#41d18f"/><rect x="544" y="298" width="10" height="14" fill="#41d18f"/><rect x="556" y="298" width="10" height="14" fill="#41d18f"/></g><g transform="translate(794 298) scale(2)" fill="#41d18f"><use href="#g31" x="0"/><use href="#g39" x="6"/></g><g transform="translate(268 320) scale(2)" fill="#f4f4ff"><use href="#g47" x="0"/><use href="#g4f" x="6"/></g><rect x="400" y="320" width="10" height="14" fill="#2c2c4a"/><rect x="412" y="320" width="10" height="14" fill="#2c2c4a"/><rect x="424" y="320" width="10" height="14" fill="#2c2c4a"/><rect x="436" y="320" width="10" height="14" fill="#2c2c4a"/><rect x="448" y="320" width="10" height="14" fill="#2c2c4a"/><rect x="460" y="320" width="10" height="14" fill="#2c2c4a"/><rect x="472" y="320" width="10" height="14" fill="#2c2c4a"/><rect x="484" y="320" width="10" height="14" fill="#2c2c4a"/><rect x="496" y="320" width="10" height="14" fill="#2c2c4a"/><rect x="508" y="320" width="10" height="14" fill="#2c2c4a"/><rect x="520" y="320" width="10" height="14" fill="#2c2c4a"/><rect x="532" y="320" width="10" height="14" fill="#2c2c4a"/><rect x="544" y="320" width="10" height="14" fill="#2c2c4a"/><rect x="556" y="320" width="10" height="14" fill="#2c2c4a"/><rect x="568" y="320" width="10" height="14" fill="#2c2c4a"/><rect x="580" y="320" width="10" height="14" fill="#2c2c4a"/><rect x="592" y="320" width="10" height="14" fill="#2c2c4a"/><rect x="604" y="320" width="10" height="14" fill="#2c2c4a"/><rect x="616" y="320" width="10" height="14" fill="#2c2c4a"/><rect x="628" y="320" width="10" height="14" fill="#2c2c4a"/><rect x="640" y="320" width="10" height="14" fill="#2c2c4a"/><rect x="652" y="320" width="10" height="14" fill="#2c2c4a"/><rect x="664" y="320" width="10" height="14" fill="#2c2c4a"/><rect x="676" y="320" width="10" height="14" fill="#2c2c4a"/><rect x="688" y="320" width="10" height="14" fill="#2c2c4a"/><rect x="700" y="320" width="10" height="14" fill="#2c2c4a"/><rect x="712" y="320" width="10" height="14" fill="#2c2c4a"/><rect x="724" y="320" width="10" height="14" fill="#2c2c4a"/><rect x="736" y="320" width="10" height="14" fill="#2c2c4a"/><rect x="748" y="320" width="10" height="14" fill="#2c2c4a"/><rect x="760" y="320" width="10" height="14" fill="#2c2c4a"/><rect x="772" y="320" width="10" height="14" fill="#2c2c4a"/><g clip-path="url(#rv4)"><rect x="400" y="320" width="10" height="14" fill="#2de2e6"/><rect x="412" y="320" width="10" height="14" fill="#2de2e6"/><rect x="424" y="320" width="10" height="14" fill="#2de2e6"/><rect x="436" y="320" width="10" height="14" fill="#2de2e6"/><rect x="448" y="320" width="10" height="14" fill="#2de2e6"/><rect x="460" y="320" width="10" height="14" fill="#2de2e6"/><rect x="472" y="320" width="10" height="14" fill="#2de2e6"/><rect x="484" y="320" width="10" height="14" fill="#2de2e6"/><rect x="496" y="320" width="10" height="14" fill="#2de2e6"/><rect x="508" y="320" width="10" height="14" fill="#2de2e6"/><rect x="520" y="320" width="10" height="14" fill="#2de2e6"/><rect x="532" y="320" width="10" height="14" fill="#2de2e6"/><rect x="544" y="320" width="10" height="14" fill="#2de2e6"/><rect x="556" y="320" width="10" height="14" fill="#2de2e6"/></g><g transform="translate(794 320) scale(2)" fill="#2de2e6"><use href="#g31" x="0"/><use href="#g39" x="6"/></g><g transform="translate(268 342) scale(2)" fill="#f4f4ff"><use href="#g52" x="0"/><use href="#g55" x="6"/><use href="#g42" x="12"/><use href="#g59" x="18"/></g><rect x="400" y="342" width="10" height="14" fill="#2c2c4a"/><rect x="412" y="342" width="10" height="14" fill="#2c2c4a"/><rect x="424" y="342" width="10" height="14" fill="#2c2c4a"/><rect x="436" y="342" width="10" height="14" fill="#2c2c4a"/><rect x="448" y="342" width="10" height="14" fill="#2c2c4a"/><rect x="460" y="342" width="10" height="14" fill="#2c2c4a"/><rect x="472" y="342" width="10" height="14" fill="#2c2c4a"/><rect x="484" y="342" width="10" height="14" fill="#2c2c4a"/><rect x="496" y="342" width="10" height="14" fill="#2c2c4a"/><rect x="508" y="342" width="10" height="14" fill="#2c2c4a"/><rect x="520" y="342" width="10" height="14" fill="#2c2c4a"/><rect x="532" y="342" width="10" height="14" fill="#2c2c4a"/><rect x="544" y="342" width="10" height="14" fill="#2c2c4a"/><rect x="556" y="342" width="10" height="14" fill="#2c2c4a"/><rect x="568" y="342" width="10" height="14" fill="#2c2c4a"/><rect x="580" y="342" width="10" height="14" fill="#2c2c4a"/><rect x="592" y="342" width="10" height="14" fill="#2c2c4a"/><rect x="604" y="342" width="10" height="14" fill="#2c2c4a"/><rect x="616" y="342" width="10" height="14" fill="#2c2c4a"/><rect x="628" y="342" width="10" height="14" fill="#2c2c4a"/><rect x="640" y="342" width="10" height="14" fill="#2c2c4a"/><rect x="652" y="342" width="10" height="14" fill="#2c2c4a"/><rect x="664" y="342" width="10" height="14" fill="#2c2c4a"/><rect x="676" y="342" width="10" height="14" fill="#2c2c4a"/><rect x="688" y="342" width="10" height="14" fill="#2c2c4a"/><rect x="700" y="342" width="10" height="14" fill="#2c2c4a"/><rect x="712" y="342" width="10" height="14" fill="#2c2c4a"/><rect x="724" y="342" width="10" height="14" fill="#2c2c4a"/><rect x="736" y="342" width="10" height="14" fill="#2c2c4a"/><rect x="748" y="342" width="10" height="14" fill="#2c2c4a"/><rect x="760" y="342" width="10" height="14" fill="#2c2c4a"/><rect x="772" y="342" width="10" height="14" fill="#2c2c4a"/><g clip-path="url(#rv5)"><rect x="400" y="342" width="10" height="14" fill="#ff4d4d"/><rect x="412" y="342" width="10" height="14" fill="#ff4d4d"/><rect x="424" y="342" width="10" height="14" fill="#ff4d4d"/><rect x="436" y="342" width="10" height="14" fill="#ff4d4d"/><rect x="448" y="342" width="10" height="14" fill="#ff4d4d"/><rect x="460" y="342" width="10" height="14" fill="#ff4d4d"/><rect x="472" y="342" width="10" height="14" fill="#ff4d4d"/><rect x="484" y="342" width="10" height="14" fill="#ff4d4d"/><rect x="496" y="342" width="10" height="14" fill="#ff4d4d"/><rect x="508" y="342" width="10" height="14" fill="#ff4d4d"/></g><g transform="translate(794 342) scale(2)" fill="#ff4d4d"><use href="#g31" x="0"/><use href="#g34" x="6"/></g><g transform="translate(268 364) scale(2)" fill="#f4f4ff"><use href="#g4a" x="0"/><use href="#g41" x="6"/><use href="#g56" x="12"/><use href="#g41" x="18"/><use href="#g53" x="24"/><use href="#g43" x="30"/><use href="#g52" x="36"/><use href="#g49" x="42"/><use href="#g50" x="48"/><use href="#g54" x="54"/></g><rect x="400" y="364" width="10" height="14" fill="#2c2c4a"/><rect x="412" y="364" width="10" height="14" fill="#2c2c4a"/><rect x="424" y="364" width="10" height="14" fill="#2c2c4a"/><rect x="436" y="364" width="10" height="14" fill="#2c2c4a"/><rect x="448" y="364" width="10" height="14" fill="#2c2c4a"/><rect x="460" y="364" width="10" height="14" fill="#2c2c4a"/><rect x="472" y="364" width="10" height="14" fill="#2c2c4a"/><rect x="484" y="364" width="10" height="14" fill="#2c2c4a"/><rect x="496" y="364" width="10" height="14" fill="#2c2c4a"/><rect x="508" y="364" width="10" height="14" fill="#2c2c4a"/><rect x="520" y="364" width="10" height="14" fill="#2c2c4a"/><rect x="532" y="364" width="10" height="14" fill="#2c2c4a"/><rect x="544" y="364" width="10" height="14" fill="#2c2c4a"/><rect x="556" y="364" width="10" height="14" fill="#2c2c4a"/><rect x="568" y="364" width="10" height="14" fill="#2c2c4a"/><rect x="580" y="364" width="10" height="14" fill="#2c2c4a"/><rect x="592" y="364" width="10" height="14" fill="#2c2c4a"/><rect x="604" y="364" width="10" height="14" fill="#2c2c4a"/><rect x="616" y="364" width="10" height="14" fill="#2c2c4a"/><rect x="628" y="364" width="10" height="14" fill="#2c2c4a"/><rect x="640" y="364" width="10" height="14" fill="#2c2c4a"/><rect x="652" y="364" width="10" height="14" fill="#2c2c4a"/><rect x="664" y="364" width="10" height="14" fill="#2c2c4a"/><rect x="676" y="364" width="10" height="14" fill="#2c2c4a"/><rect x="688" y="364" width="10" height="14" fill="#2c2c4a"/><rect x="700" y="364" width="10" height="14" fill="#2c2c4a"/><rect x="712" y="364" width="10" height="14" fill="#2c2c4a"/><rect x="724" y="364" width="10" height="14" fill="#2c2c4a"/><rect x="736" y="364" width="10" height="14" fill="#2c2c4a"/><rect x="748" y="364" width="10" height="14" fill="#2c2c4a"/><rect x="760" y="364" width="10" height="14" fill="#2c2c4a"/><rect x="772" y="364" width="10" height="14" fill="#2c2c4a"/><g clip-path="url(#rv6)"><rect x="400" y="364" width="10" height="14" fill="#f7e45a"/><rect x="412" y="364" width="10" height="14" fill="#f7e45a"/><rect x="424" y="364" width="10" height="14" fill="#f7e45a"/><rect x="436" y="364" width="10" height="14" fill="#f7e45a"/><rect x="448" y="364" width="10" height="14" fill="#f7e45a"/><rect x="460" y="364" width="10" height="14" fill="#f7e45a"/><rect x="472" y="364" width="10" height="14" fill="#f7e45a"/></g><g transform="translate(794 364) scale(2)" fill="#f7e45a"><use href="#g39" x="0"/></g><rect x="6" y="18" width="868" height="380" fill="url(#scan7)" pointer-events="none"/></svg>
